<svg enable-background="new 0 0 1000 1000" viewBox="0 0 1000 1000" xmlns="http://www.w3.org/2000/svg"><path d="m990 482.2-215.1 211.6v-93.1h-246.5v-228.8h246.6v-101.3zm-325.6-287.8h-198.8v-73.3h196.6c36.2 0 65.5 33.9 65.5 75.7v131.3h-63.4zm-322.6 764.3-287.6-131c-24.5 0-44.2-29.3-44.2-65.5v-524.4c0-36.2 19.7-65.5 44.2-65.5l287.6-131c24.4 0 44.3 29.3 44.3 65.5v786.4c0 36.2-19.9 65.5-44.3 65.5zm-72.8-535.2c-30.1 0-54.6 24.5-54.6 54.6 0 30.2 24.5 54.6 54.6 54.6 30.2 0 54.6-24.4 54.6-54.6 0-30.1-24.4-54.6-54.6-54.6zm395.4 209.9h63.4v169.7c0 41.9-29.3 75.8-65.5 75.8h-196.7v-73.3h198.8z"/></svg>